/* XPM */
static char *bfaf4afcaf184999fd81d169eb8d7dc9VJsWeDR3keiL56zx[] = {
/* columns rows colors chars-per-pixel */
"100 100 10 1 ",
"  c #ED1C24",
". c #FF7F27",
"X c #22B14C",
"o c #B5E61D",
"O c #FFF200",
"+ c #A349A4",
"@ c #7092BE",
"# c #00A2E8",
"$ c #EFE4B0",
"% c white",
/* pixels */
".........................                         $$$$$$$$$$$$$$$$$$$$$$$$$XXXXXXXXXXXXXXXXXXXXXXXXX",
".........................                         $$$$$$$$$$$$$$$$$$$$$$$$$XXXXXXXXXXXXXXXXXXXXXXXXX",
".........................                         $$$$$$$$$$$$$$$$$$$$$$$$$XXXXXXXXXXXXXXXXXXXXXXXXX",
".........................                         $$$$$$$$$$$$$$$$$$$$$$$$$XXXXXXXXXXXXXXXXXXXXXXXXX",
".........................                         $$$$$$$$$$$$$$$$$$$$$$$$$XXXXXXXXXXXXXXXXXXXXXXXXX",
".........................                         $$$$$$$$$$$$$$$$$$$$$$$$$XXXXXXXXXXXXXXXXXXXXXXXXX",
".........................                         $$$$$$$$$$$$$$$$$$$$$$$$$XXXXXXXXXXXXXXXXXXXXXXXXX",
".........................                         $$$$$$$$$$$$$$$$$$$$$$$$$XXXXXXXXXXXXXXXXXXXXXXXXX",
".........................                         $$$$$$$$$$$$$$$$$$$$$$$$$XXXXXXXXXXXXXXXXXXXXXXXXX",
".........................                         $$$$$$$$$$$$$$$$$$$$$$$$$XXXXXXXXXXXXXXXXXXXXXXXXX",
".........................                         $$$$$$$$$$$$$$$$$$$$$$$$$XXXXXXXXXXXXXXXXXXXXXXXXX",
".........................                         $$$$$$$$$$$$$$$$$$$$$$$$$XXXXXXXXXXXXXXXXXXXXXXXXX",
".........................                         $$$$$$$$$$$$$$$$$$$$$$$$$XXXXXXXXXXXXXXXXXXXXXXXXX",
".........................                         $$$$$$$$$$$$$$$$$$$$$$$$$XXXXXXXXXXXXXXXXXXXXXXXXX",
".........................                         $$$$$$$$$$$$$$$$$$$$$$$$$XXXXXXXXXXXXXXXXXXXXXXXXX",
".........................                         $$$$$$$$$$$$$$$$$$$$$$$$$XXXXXXXXXXXXXXXXXXXXXXXXX",
".........................                         $$$$$$$$$$$$$$$$$$$$$$$$$XXXXXXXXXXXXXXXXXXXXXXXXX",
".........................                         $$$$$$$$$$$$$$$$$$$$$$$$$XXXXXXXXXXXXXXXXXXXXXXXXX",
".........................                         $$$$$$$$$$$$$$$$$$$$$$$$$XXXXXXXXXXXXXXXXXXXXXXXXX",
".........................                         $$$$$$$$$$$$$$$$$$$$$$$$$XXXXXXXXXXXXXXXXXXXXXXXXX",
".........................                         $$$$$$$$$$$$$$$$$$$$$$$$$XXXXXXXXXXXXXXXXXXXXXXXXX",
".........................                         $$$$$$$$$$$$$$$$$$$$$$$$$XXXXXXXXXXXXXXXXXXXXXXXXX",
".........................                         $$$$$$$$$$$$$$$$$$$$$$$$$XXXXXXXXXXXXXXXXXXXXXXXXX",
".........................                         $$$$$$$$$$$$$$$$$$$$$$$$$XXXXXXXXXXXXXXXXXXXXXXXXX",
".........................                         $$$$$$$$$$$$$$$$$$$$$$$$$XXXXXXXXXXXXXXXXXXXXXXXXX",
"                         OOOOOOOOOOOOOOOOOOOOOOOOOXXXXXXXXXXXXXXXXXXXXXXXXXooooooooooooooooooooooooo",
"                         OOOOOOOOOOOOOOOOOOOOOOOOOXXXXXXXXXXXXXXXXXXXXXXXXXooooooooooooooooooooooooo",
"                         OOOOOOOOOOOOOOOOOOOOOOOOOXXXXXXXXXXXXXXXXXXXXXXXXXooooooooooooooooooooooooo",
"                         OOOOOOOOOOOOOOOOOOOOOOOOOXXXXXXXXXXXXXXXXXXXXXXXXXooooooooooooooooooooooooo",
"                         OOOOOOOOOOOOOOOOOOOOOOOOOXXXXXXXXXXXXXXXXXXXXXXXXXooooooooooooooooooooooooo",
"                         OOOOOOOOOOOOOOOOOOOOOOOOOXXXXXXXXXXXXXXXXXXXXXXXXXooooooooooooooooooooooooo",
"                         OOOOOOOOOOOOOOOOOOOOOOOOOXXXXXXXXXXXXXXXXXXXXXXXXXooooooooooooooooooooooooo",
"                         OOOOOOOOOOOOOOOOOOOOOOOOOXXXXXXXXXXXXXXXXXXXXXXXXXooooooooooooooooooooooooo",
"                         OOOOOOOOOOOOOOOOOOOOOOOOOXXXXXXXXXXXXXXXXXXXXXXXXXooooooooooooooooooooooooo",
"                         OOOOOOOOOOOOOOOOOOOOOOOOOXXXXXXXXXXXXXXXXXXXXXXXXXooooooooooooooooooooooooo",
"                         OOOOOOOOOOOOOOOOOOOOOOOOOXXXXXXXXXXXXXXXXXXXXXXXXXooooooooooooooooooooooooo",
"                         OOOOOOOOOOOOOOOOOOOOOOOOOXXXXXXXXXXXXXXXXXXXXXXXXXooooooooooooooooooooooooo",
"                         OOOOOOOOOOOOOOOOOOOOOOOOOXXXXXXXXXXXXXXXXXXXXXXXXXooooooooooooooooooooooooo",
"                         OOOOOOOOOOOOOOOOOOOOOOOOOXXXXXXXXXXXXXXXXXXXXXXXXXooooooooooooooooooooooooo",
"                         OOOOOOOOOOOOOOOOOOOOOOOOOXXXXXXXXXXXXXXXXXXXXXXXXXooooooooooooooooooooooooo",
"                         OOOOOOOOOOOOOOOOOOOOOOOOOXXXXXXXXXXXXXXXXXXXXXXXXXooooooooooooooooooooooooo",
"                         OOOOOOOOOOOOOOOOOOOOOOOOOXXXXXXXXXXXXXXXXXXXXXXXXXooooooooooooooooooooooooo",
"                         OOOOOOOOOOOOOOOOOOOOOOOOOXXXXXXXXXXXXXXXXXXXXXXXXXooooooooooooooooooooooooo",
"                         OOOOOOOOOOOOOOOOOOOOOOOOOXXXXXXXXXXXXXXXXXXXXXXXXXooooooooooooooooooooooooo",
"                         OOOOOOOOOOOOOOOOOOOOOOOOOXXXXXXXXXXXXXXXXXXXXXXXXXooooooooooooooooooooooooo",
"                         OOOOOOOOOOOOOOOOOOOOOOOOOXXXXXXXXXXXXXXXXXXXXXXXXXooooooooooooooooooooooooo",
"                         OOOOOOOOOOOOOOOOOOOOOOOOOXXXXXXXXXXXXXXXXXXXXXXXXXooooooooooooooooooooooooo",
"                         OOOOOOOOOOOOOOOOOOOOOOOOOXXXXXXXXXXXXXXXXXXXXXXXXXooooooooooooooooooooooooo",
"                         OOOOOOOOOOOOOOOOOOOOOOOOOXXXXXXXXXXXXXXXXXXXXXXXXXooooooooooooooooooooooooo",
"                         OOOOOOOOOOOOOOOOOOOOOOOOOXXXXXXXXXXXXXXXXXXXXXXXXXooooooooooooooooooooooooo",
"@@@@@@@@@@@@@@@@@@@@@@@@@#########################%%%%%%%%%%%%%%%%%%%%%%%%%%%%%%%%%%%%%%%%%%%%%%%%%%",
"@@@@@@@@@@@@@@@@@@@@@@@@@#########################%%%%%%%%%%%%%%%%%%%%%%%%%%%%%%%%%%%%%%%%%%%%%%%%%%",
"@@@@@@@@@@@@@@@@@@@@@@@@@#########################%%%%%%%%%%%%%%%%%%%%%%%%%%%%%%%%%%%%%%%%%%%%%%%%%%",
"@@@@@@@@@@@@@@@@@@@@@@@@@#########################%%%%%%%%%%%%%%%%%%%%%%%%%%%%%%%%%%%%%%%%%%%%%%%%%%",
"@@@@@@@@@@@@@@@@@@@@@@@@@#########################%%%%%%%%%%%%%%%%%%%%%%%%%%%%%%%%%%%%%%%%%%%%%%%%%%",
"@@@@@@@@@@@@@@@@@@@@@@@@@#########################%%%%%%%%%%%%%%%%%%%%%%%%%%%%%%%%%%%%%%%%%%%%%%%%%%",
"@@@@@@@@@@@@@@@@@@@@@@@@@#########################%%%%%%%%%%%%%%%%%%%%%%%%%%%%%%%%%%%%%%%%%%%%%%%%%%",
"@@@@@@@@@@@@@@@@@@@@@@@@@#########################%%%%%%%%%%%%%%%%%%%%%%%%%%%%%%%%%%%%%%%%%%%%%%%%%%",
"@@@@@@@@@@@@@@@@@@@@@@@@@#########################%%%%%%%%%%%%%%%%%%%%%%%%%%%%%%%%%%%%%%%%%%%%%%%%%%",
"@@@@@@@@@@@@@@@@@@@@@@@@@#########################%%%%%%%%%%%%%%%%%%%%%%%%%%%%%%%%%%%%%%%%%%%%%%%%%%",
"@@@@@@@@@@@@@@@@@@@@@@@@@#########################%%%%%%%%%%%%%%%%%%%%%%%%%%%%%%%%%%%%%%%%%%%%%%%%%%",
"@@@@@@@@@@@@@@@@@@@@@@@@@#########################%%%%%%%%%%%%%%%%%%%%%%%%%%%%%%%%%%%%%%%%%%%%%%%%%%",
"@@@@@@@@@@@@@@@@@@@@@@@@@#########################%%%%%%%%%%%%%%%%%%%%%%%%%%%%%%%%%%%%%%%%%%%%%%%%%%",
"@@@@@@@@@@@@@@@@@@@@@@@@@#########################%%%%%%%%%%%%%%%%%%%%%%%%%%%%%%%%%%%%%%%%%%%%%%%%%%",
"@@@@@@@@@@@@@@@@@@@@@@@@@#########################%%%%%%%%%%%%%%%%%%%%%%%%%%%%%%%%%%%%%%%%%%%%%%%%%%",
"@@@@@@@@@@@@@@@@@@@@@@@@@#########################%%%%%%%%%%%%%%%%%%%%%%%%%%%%%%%%%%%%%%%%%%%%%%%%%%",
"@@@@@@@@@@@@@@@@@@@@@@@@@#########################%%%%%%%%%%%%%%%%%%%%%%%%%%%%%%%%%%%%%%%%%%%%%%%%%%",
"@@@@@@@@@@@@@@@@@@@@@@@@@#########################%%%%%%%%%%%%%%%%%%%%%%%%%%%%%%%%%%%%%%%%%%%%%%%%%%",
"@@@@@@@@@@@@@@@@@@@@@@@@@#########################%%%%%%%%%%%%%%%%%%%%%%%%%%%%%%%%%%%%%%%%%%%%%%%%%%",
"@@@@@@@@@@@@@@@@@@@@@@@@@#########################%%%%%%%%%%%%%%%%%%%%%%%%%%%%%%%%%%%%%%%%%%%%%%%%%%",
"@@@@@@@@@@@@@@@@@@@@@@@@@#########################%%%%%%%%%%%%%%%%%%%%%%%%%%%%%%%%%%%%%%%%%%%%%%%%%%",
"@@@@@@@@@@@@@@@@@@@@@@@@@#########################%%%%%%%%%%%%%%%%%%%%%%%%%%%%%%%%%%%%%%%%%%%%%%%%%%",
"@@@@@@@@@@@@@@@@@@@@@@@@@#########################%%%%%%%%%%%%%%%%%%%%%%%%%%%%%%%%%%%%%%%%%%%%%%%%%%",
"@@@@@@@@@@@@@@@@@@@@@@@@@#########################%%%%%%%%%%%%%%%%%%%%%%%%%%%%%%%%%%%%%%%%%%%%%%%%%%",
"@@@@@@@@@@@@@@@@@@@@@@@@@#########################%%%%%%%%%%%%%%%%%%%%%%%%%%%%%%%%%%%%%%%%%%%%%%%%%%",
"#########################+++++++++++++++++++++++++%%%%%%%%%%%%%%%%%%%%%%%%%%%%%%%%%%%%%%%%%%%%%%%%%%",
"#########################+++++++++++++++++++++++++%%%%%%%%%%%%%%%%%%%%%%%%%%%%%%%%%%%%%%%%%%%%%%%%%%",
"#########################+++++++++++++++++++++++++%%%%%%%%%%%%%%%%%%%%%%%%%%%%%%%%%%%%%%%%%%%%%%%%%%",
"#########################+++++++++++++++++++++++++%%%%%%%%%%%%%%%%%%%%%%%%%%%%%%%%%%%%%%%%%%%%%%%%%%",
"#########################+++++++++++++++++++++++++%%%%%%%%%%%%%%%%%%%%%%%%%%%%%%%%%%%%%%%%%%%%%%%%%%",
"#########################+++++++++++++++++++++++++%%%%%%%%%%%%%%%%%%%%%%%%%%%%%%%%%%%%%%%%%%%%%%%%%%",
"#########################+++++++++++++++++++++++++%%%%%%%%%%%%%%%%%%%%%%%%%%%%%%%%%%%%%%%%%%%%%%%%%%",
"#########################+++++++++++++++++++++++++%%%%%%%%%%%%%%%%%%%%%%%%%%%%%%%%%%%%%%%%%%%%%%%%%%",
"#########################+++++++++++++++++++++++++%%%%%%%%%%%%%%%%%%%%%%%%%%%%%%%%%%%%%%%%%%%%%%%%%%",
"#########################+++++++++++++++++++++++++%%%%%%%%%%%%%%%%%%%%%%%%%%%%%%%%%%%%%%%%%%%%%%%%%%",
"#########################+++++++++++++++++++++++++%%%%%%%%%%%%%%%%%%%%%%%%%%%%%%%%%%%%%%%%%%%%%%%%%%",
"#########################+++++++++++++++++++++++++%%%%%%%%%%%%%%%%%%%%%%%%%%%%%%%%%%%%%%%%%%%%%%%%%%",
"#########################+++++++++++++++++++++++++%%%%%%%%%%%%%%%%%%%%%%%%%%%%%%%%%%%%%%%%%%%%%%%%%%",
"#########################+++++++++++++++++++++++++%%%%%%%%%%%%%%%%%%%%%%%%%%%%%%%%%%%%%%%%%%%%%%%%%%",
"#########################+++++++++++++++++++++++++%%%%%%%%%%%%%%%%%%%%%%%%%%%%%%%%%%%%%%%%%%%%%%%%%%",
"#########################+++++++++++++++++++++++++%%%%%%%%%%%%%%%%%%%%%%%%%%%%%%%%%%%%%%%%%%%%%%%%%%",
"#########################+++++++++++++++++++++++++%%%%%%%%%%%%%%%%%%%%%%%%%%%%%%%%%%%%%%%%%%%%%%%%%%",
"#########################+++++++++++++++++++++++++%%%%%%%%%%%%%%%%%%%%%%%%%%%%%%%%%%%%%%%%%%%%%%%%%%",
"#########################+++++++++++++++++++++++++%%%%%%%%%%%%%%%%%%%%%%%%%%%%%%%%%%%%%%%%%%%%%%%%%%",
"#########################+++++++++++++++++++++++++%%%%%%%%%%%%%%%%%%%%%%%%%%%%%%%%%%%%%%%%%%%%%%%%%%",
"#########################+++++++++++++++++++++++++%%%%%%%%%%%%%%%%%%%%%%%%%%%%%%%%%%%%%%%%%%%%%%%%%%",
"#########################+++++++++++++++++++++++++%%%%%%%%%%%%%%%%%%%%%%%%%%%%%%%%%%%%%%%%%%%%%%%%%%",
"#########################+++++++++++++++++++++++++%%%%%%%%%%%%%%%%%%%%%%%%%%%%%%%%%%%%%%%%%%%%%%%%%%",
"#########################+++++++++++++++++++++++++%%%%%%%%%%%%%%%%%%%%%%%%%%%%%%%%%%%%%%%%%%%%%%%%%%",
"#########################+++++++++++++++++++++++++%%%%%%%%%%%%%%%%%%%%%%%%%%%%%%%%%%%%%%%%%%%%%%%%%%"
};
